<svg xmlns="http://www.w3.org/2000/svg" width="200" height="200" viewBox="0 0 64 64" role="img" aria-label="PaperFlow logo">
  <defs>
    <linearGradient id="bg" x1="10" x2="54" y1="6" y2="58" gradientUnits="userSpaceOnUse">
      <stop stop-color="#0F766E"/>
      <stop offset="1" stop-color="#2563EB"/>
    </linearGradient>
    <linearGradient id="flow" x1="16" x2="48" y1="20" y2="44" gradientUnits="userSpaceOnUse">
      <stop stop-color="#67E8F9"/>
      <stop offset="1" stop-color="#BFDBFE"/>
    </linearGradient>
  </defs>
  <rect width="64" height="64" rx="15" fill="url(#bg)"/>
  <path fill="#FFFFFF" d="M20 12h19l9 9v31a4 4 0 0 1-4 4H20a4 4 0 0 1-4-4V16a4 4 0 0 1 4-4z"/>
  <path fill="#CFFAFE" d="M39 12v7a2 2 0 0 0 2 2h7z"/>
  <path fill="none" stroke="url(#flow)" stroke-linecap="round" stroke-linejoin="round" stroke-width="4" d="M24 28h12a7 7 0 0 1 0 14H24V22"/>
  <path fill="none" stroke="#0F766E" stroke-linecap="round" stroke-width="3" d="M24 36h17"/>
  <path fill="#0F766E" d="m43 36-5-4v8z"/>
</svg>
